:SAMPLES-PER-SECOND 30
:FULLY-SPECIFIED
:DEGREES
280
root  31.6333 36.2194 -3.5814 6.58504 83.2859 8.59668
RightUpLeg  0.471349 -10.7385 -10.5357
RightLeg  59.041 -1.38184 -3.00952
RightFoot  -4.36261 -0.617507 10.0787
RightToes  0.00048216 0.542163 -0.142577
Spine  29.0325 0.128369 5.63914
Spine1  11.0343 2.5475 -3.6956
HEad  4.52816 -2.1134 0.0196675
LeftShoulder1  8.50756 -13.8151 -42.6987
LeftArm  -23.8891 8.70348 -22.2493
LeftForeArm  36.1912 -43.6682 -8.23042
LeftHand  -0.25398 0.0180481 5.50724
RightShoulder  4.04006 8.6294 27.2667
RightArm  -13.133 27.0738 32.6396
RightForeArm  -2.86786 26.7703 5.90858
RightHand  -2.46105 7.12464 -22.9539
LeftUpLeg  -36.5383 24.955 -11.393
LeftLeg  21.7956 1.51095 1.02568
LeftFoot  12.4783 -2.28068 10.433
LeftToes  1.06245e-005 4.65856e-005 -8.18504e-006
281
root  32.3652 36.1665 -3.74838 13.1618 82.9668 14.8492
RightUpLeg  -8.48868 -11.98 -11.3587
RightLeg  69.1967 -1.6434 -5.53199
RightFoot  3.08366 -0.63667 4.9801
RightToes  0.00048216 0.542163 -0.142577
Spine  34.1389 -0.318009 5.13284
Spine1  11.5753 2.5112 -4.53828
HEad  0.446029 -2.37921 -1.55949
LeftShoulder1  9.01118 -15.1589 -41.9099
LeftArm  -23.3142 3.05215 -23.1236
LeftForeArm  35.8979 -41.7203 -7.62894
LeftHand  -0.25398 0.0180481 5.50724
RightShoulder  3.91837 8.97147 25.3059
RightArm  -13.0443 32.4709 35.2507
RightForeArm  -2.98425 25.9224 5.70802
RightHand  -2.46936 7.41428 -22.5238
LeftUpLeg  -37.1385 24.9335 -12.3855
LeftLeg  24.7826 2.08237 1.38088
LeftFoot  9.66344 -2.29699 12.0073
LeftToes  1.06245e-005 4.65856e-005 -8.18504e-006
282
root  33.0366 36.3528 -3.88123 11.5823 82.1681 12.4509
RightUpLeg  -17.2861 -13.0286 -10.1284
RightLeg  74.1326 -1.49668 -7.08124
RightFoot  3.275 -0.28968 2.40354
RightToes  0.00048216 0.542163 -0.142577
Spine  38.8765 -0.50684 5.30516
Spine1  12.3657 2.82562 -4.70111
HEad  -3.68503 -2.72085 -3.14995
LeftShoulder1  9.26762 -16.0365 -41.1018
LeftArm  -22.7199 -4.37686 -24.0574
LeftForeArm  36.418 -39.29 -6.87552
LeftHand  -0.25398 0.0180481 5.50724
RightShoulder  3.83325 9.49597 23.2883
RightArm  -12.1804 39.3864 36.6582
RightForeArm  -2.24634 23.3429 5.17373
RightHand  -2.16319 6.64486 -21.028
LeftUpLeg  -37.5436 25.9586 -12.6531
LeftLeg  25.7369 1.81204 1.29075
LeftFoot  8.57591 -2.23376 12.3672
LeftToes  1.06245e-005 4.65856e-005 -8.18504e-006
283
root  33.6929 36.663 -3.96262 6.37798 81.9481 5.77225
RightUpLeg  -25.4364 -14.9078 -7.32015
RightLeg  73.8777 -1.82099 -8.24701
RightFoot  0.348402 -0.306302 3.05716
RightToes  0.00048216 0.542163 -0.142577
Spine  43.0611 -0.997318 6.43065
Spine1  12.9462 3.01066 -4.64493
HEad  -7.73554 -3.47596 -3.80831
LeftShoulder1  9.31873 -16.6285 -40.024
LeftArm  -22.2194 -13.0863 -24.9396
LeftForeArm  37.0716 -36.5286 -6.08068
LeftHand  -0.25398 0.0180481 5.50724
RightShoulder  3.76957 10.1582 21.2718
RightArm  -12.6522 46.7145 36.8278
RightForeArm  -0.132864 19.7639 4.99903
RightHand  -1.78627 5.49259 -19.2703
LeftUpLeg  -38.1839 26.5739 -12.3497
LeftLeg  25.8196 1.34457 1.04681
LeftFoot  8.17051 -2.13173 12.0584
LeftToes  1.06245e-005 4.65856e-005 -8.18504e-006
284
root  34.2933 36.896 -3.98286 2.25294 82.6061 -0.114914
RightUpLeg  -32.5595 -17.5236 -3.80848
RightLeg  69.5107 -3.45967 -10.8621
RightFoot  -1.56751 -0.367049 4.13432
RightToes  0.00048216 0.542163 -0.142577
Spine  46.513 -1.92843 8.00018
Spine1  14.1311 3.08929 -5.06446
HEad  -11.9529 -4.95184 -3.46038
LeftShoulder1  9.2917 -17.5974 -37.8728
LeftArm  -22.4189 -22.5053 -26.0739
LeftForeArm  37.292 -33.1855 -5.22769
LeftHand  -0.25398 0.0180481 5.50724
RightShoulder  3.6083 10.6117 19.0928
RightArm  -16.1849 53.7577 35.4058
RightForeArm  1.7488 15.7794 5.45433
RightHand  -1.63017 5.02176 -18.4023
LeftUpLeg  -39.081 26.2771 -12.2204
LeftLeg  25.9089 0.922389 0.825368
LeftFoot  7.39452 -2.04186 12.057
LeftToes  1.06245e-005 4.65856e-005 -8.18504e-006
285
root  34.851 37.0676 -3.93836 -1.30437 83.5087 -5.49863
RightUpLeg  -38.373 -19.6174 0.0700682
RightLeg  61.6346 -6.80193 -13.8658
RightFoot  -2.29295 -0.244887 2.87642
RightToes  0.00048216 0.542163 -0.142577
Spine  49.5979 -2.83893 9.41709
Spine1  15.681 3.36727 -5.63951
HEad  -16.2848 -6.91877 -2.76942
LeftShoulder1  9.22068 -19.0339 -34.8064
LeftArm  -23.6874 -32.0974 -27.0782
LeftForeArm  36.9154 -29.0023 -4.2753
LeftHand  -0.25398 0.0180481 5.50724
RightShoulder  3.2661 10.6298 16.4278
RightArm  -20.9067 60.2668 32.3926
RightForeArm  1.9842 11.7495 5.89344
RightHand  -1.61029 4.94816 -18.3338
LeftUpLeg  -40.2165 25.9578 -12.4355
LeftLeg  25.9743 0.149459 0.41689
LeftFoot  6.80884 -2.04856 12.5099
LeftToes  1.06245e-005 4.65856e-005 -8.18504e-006
286
root  35.4104 37.2006 -3.79672 -5.2507 84.3189 -11.6858
RightUpLeg  -42.7373 -20.5092 3.84969
RightLeg  49.991 -9.69841 -12.6495
RightFoot  -3.41674 -0.201599 2.65448
RightToes  0.00048216 0.542163 -0.142577
Spine  53.7611 -3.54414 10.1783
Spine1  14.4951 3.65977 -6.23574
HEad  -19.6702 -8.54012 -1.97598
LeftShoulder1  8.98587 -20.2376 -31.7336
LeftArm  -25.6086 -40.533 -27.0525
LeftForeArm  36.2491 -24.5941 -3.39592
LeftHand  -0.25398 0.0180481 5.50724
RightShoulder  2.85081 10.3541 13.6621
RightArm  -23.3194 65.5245 28.8149
RightForeArm  3.36014 8.34127 6.19744
RightHand  -1.28155 3.58025 -16.6825
LeftUpLeg  -42.2059 25.8332 -12.8881
LeftLeg  26.4141 -0.891353 -0.144932
LeftFoot  6.58631 -2.0557 12.72
LeftToes  1.06245e-005 4.65856e-005 -8.18504e-006
